<?xml version="1.0" encoding="UTF-8"?>
<svg width="170" height="170" version="1.1" viewBox="0 0 170 170" xmlns="http://www.w3.org/2000/svg">
<g transform="translate(-140.8 -76.17)">
<path d="m169.8 245.8c-3.419-1.362-4.708-3.477-4.708-7.726 0-4.287 0.0201-4.313 14.36-18.51 7.897-7.82 23.61-23.11 34.91-33.98l20.56-19.76-12.81-35.66c-7.047-19.61-13.26-36.28-14.76-38.8-2.163-3.634-4.949-5.927-9.777-6.454-3.147-0.3432-3.821-1.446-4.058-3.472-0.2155-1.836 0.3556-2.915 2.174-4.106 2.2-1.441 6.31-1.527 14-0.3384 9.545 1.476 13.54 3.726 17.87 8.834 4.33 5.107 13.41 34.99 27.95 75.39s27.48 75.29 28.74 77.56c3.68 6.595 3.562 6.708-7.085 6.708-13.78 0-12.96 1.113-26.78-36.8-6.12-16.79-11.4-30.81-11.72-31.16-0.3281-0.3488-13.1 13.76-28.37 31.35-15.28 17.59-28.87 33.04-30.22 34.33-2.444 2.344-7.611 3.647-10.27 2.589z" fill="#dfdfd6"/>
</g>
</svg>
