<svg width="400" height="400" xmlns="http://www.w3.org/2000/svg"><line x1="200" y1="400" x2="199.76110218877184" y2="300.0002853612282" style="stroke:black;stroke-width:2;opacity:0.9"/><line x1="199.76110218877184" y1="300.0002853612282" x2="199.59387372091214" y2="230.00048511408792" style="stroke:black;stroke-width:2;opacity:0.9"/><line x1="199.59387372091214" y1="230.00048511408792" x2="199.47681379341034" y2="181.00062494108974" style="stroke:black;stroke-width:2;opacity:0.9"/><line x1="199.47681379341034" y1="181.00062494108974" x2="199.39558853759277" y2="147.00072196390732" style="stroke:black;stroke-width:2;opacity:0.9"/><line x1="199.39558853759277" y1="147.00072196390732" x2="199.34064204101028" y2="124.00078759698981" style="stroke:green;stroke-width:3;opacity:0.9"/><line x1="199.34064204101028" y1="124.00078759698981" x2="199.3024183912138" y2="108.00083325478633" style="stroke:green;stroke-width:3;opacity:0.9"/><line x1="199.34064204101028" y1="124.00078759698981" x2="204.0324354073921" y2="108.70415152865192" style="stroke:green;stroke-width:3;opacity:0.9"/><line x1="199.34064204101028" y1="124.00078759698981" x2="190.274840907512" y2="110.8170381376038" style="stroke:green;stroke-width:3;opacity:0.9"/><line x1="199.39558853759277" y1="147.00072196390732" x2="206.14004150176663" y2="125.01180761567161" style="stroke:green;stroke-width:3;opacity:0.9"/><line x1="206.14004150176663" y1="125.01180761567161" x2="210.83183486814843" y2="109.71517154733372" style="stroke:green;stroke-width:3;opacity:0.9"/><line x1="206.14004150176663" y1="125.01180761567161" x2="215.14274795624715" y2="111.78489276395904" style="stroke:green;stroke-width:3;opacity:0.9"/><line x1="206.14004150176663" y1="125.01180761567161" x2="201.3752152405885" y2="109.73776326910816" style="stroke:green;stroke-width:3;opacity:0.9"/><line x1="199.39558853759277" y1="147.00072196390732" x2="186.36349940818897" y2="128.04908211603993" style="stroke:green;stroke-width:3;opacity:0.9"/><line x1="186.36349940818897" y1="128.04908211603993" x2="177.29769827469067" y2="114.86533265665392" style="stroke:green;stroke-width:3;opacity:0.9"/><line x1="186.36349940818897" y1="128.04908211603993" x2="181.59867314701086" y2="112.77503776947647" style="stroke:green;stroke-width:3;opacity:0.9"/><line x1="186.36349940818897" y1="128.04908211603993" x2="171.4370659516561" y2="122.28700052448843" style="stroke:green;stroke-width:3;opacity:0.9"/><line x1="199.47681379341034" y1="181.00062494108974" x2="209.4468746969717" y2="148.49527329587173" style="stroke:black;stroke-width:2;opacity:0.9"/><line x1="209.4468746969717" y1="148.49527329587173" x2="216.19132766114555" y2="126.50635894763602" style="stroke:green;stroke-width:3;opacity:0.9"/><line x1="216.19132766114555" y1="126.50635894763602" x2="220.88312102752735" y2="111.20972287929813" style="stroke:green;stroke-width:3;opacity:0.9"/><line x1="216.19132766114555" y1="126.50635894763602" x2="225.19403411562607" y2="113.27944409592344" style="stroke:green;stroke-width:3;opacity:0.9"/><line x1="216.19132766114555" y1="126.50635894763602" x2="211.42650139996744" y2="111.23231460107256" style="stroke:green;stroke-width:3;opacity:0.9"/><line x1="209.4468746969717" y1="148.49527329587173" x2="222.38826522528743" y2="129.4815831965349" style="stroke:green;stroke-width:3;opacity:0.9"/><line x1="222.38826522528743" y1="129.4815831965349" x2="231.39097167976794" y2="116.25466834482232" style="stroke:green;stroke-width:3;opacity:0.9"/><line x1="222.38826522528743" y1="129.4815831965349" x2="234.89769981260932" y2="119.50591047207593" style="stroke:green;stroke-width:3;opacity:0.9"/><line x1="222.38826522528743" y1="129.4815831965349" x2="222.35004157549093" y2="113.4816288543314" style="stroke:green;stroke-width:3;opacity:0.9"/><line x1="209.4468746969717" y1="148.49527329587173" x2="202.59743694652812" y2="126.53883454768675" style="stroke:green;stroke-width:3;opacity:0.9"/><line x1="202.59743694652812" y1="126.53883454768675" x2="197.83261068535" y2="111.26479020112329" style="stroke:green;stroke-width:3;opacity:0.9"/><line x1="202.59743694652812" y1="126.53883454768675" x2="202.55921329673163" y2="110.53888020548325" style="stroke:green;stroke-width:3;opacity:0.9"/><line x1="202.59743694652812" y1="126.53883454768675" x2="190.04048195573182" y2="116.62304505016733" style="stroke:green;stroke-width:3;opacity:0.9"/><line x1="199.47681379341034" y1="181.00062494108974" x2="180.21198638472646" y2="152.98515733989447" style="stroke:black;stroke-width:2;opacity:0.9"/><line x1="180.21198638472646" y1="152.98515733989447" x2="167.17989725532266" y2="134.03351749202707" style="stroke:green;stroke-width:3;opacity:0.9"/><line x1="167.17989725532266" y1="134.03351749202707" x2="158.11409612182436" y2="120.84976803264107" style="stroke:green;stroke-width:3;opacity:0.9"/><line x1="167.17989725532266" y1="134.03351749202707" x2="162.41507099414451" y2="118.75947314546362" style="stroke:green;stroke-width:3;opacity:0.9"/><line x1="167.17989725532266" y1="134.03351749202707" x2="152.2534637987898" y2="128.27143590047558" style="stroke:green;stroke-width:3;opacity:0.9"/><line x1="180.21198638472646" y1="152.98515733989447" x2="173.3625486342829" y2="131.0287185917095" style="stroke:green;stroke-width:3;opacity:0.9"/><line x1="173.3625486342829" y1="131.0287185917095" x2="168.59772237310477" y2="115.75467424514603" style="stroke:green;stroke-width:3;opacity:0.9"/><line x1="173.3625486342829" y1="131.0287185917095" x2="173.3243249844864" y2="115.028764249506" style="stroke:green;stroke-width:3;opacity:0.9"/><line x1="173.3625486342829" y1="131.0287185917095" x2="160.8055936434866" y2="121.11292909419008" style="stroke:green;stroke-width:3;opacity:0.9"/><line x1="180.21198638472646" y1="152.98515733989447" x2="158.75523829096048" y2="144.7021650520392" style="stroke:green;stroke-width:3;opacity:0.9"/><line x1="158.75523829096048" y1="144.7021650520392" x2="143.82880483442761" y2="138.9400834604877" style="stroke:green;stroke-width:3;opacity:0.9"/><line x1="158.75523829096048" y1="144.7021650520392" x2="146.19828330016418" y2="134.7863755545198" style="stroke:green;stroke-width:3;opacity:0.9"/><line x1="158.75523829096048" y1="144.7021650520392" x2="143.1824051539469" y2="148.37461220437942" style="stroke:green;stroke-width:3;opacity:0.9"/><line x1="199.59387372091214" y1="230.00048511408792" x2="213.96249090545643" y2="183.15453715480314" style="stroke:black;stroke-width:2;opacity:0.9"/><line x1="213.96249090545643" y1="183.15453715480314" x2="223.93255180901778" y2="150.64918550958512" style="stroke:black;stroke-width:2;opacity:0.9"/><line x1="223.93255180901778" y1="150.64918550958512" x2="230.67700477319164" y2="128.6602711613494" style="stroke:green;stroke-width:3;opacity:0.9"/><line x1="230.67700477319164" y1="128.6602711613494" x2="235.36879813957344" y2="113.36363509301152" style="stroke:green;stroke-width:3;opacity:0.9"/><line x1="230.67700477319164" y1="128.6602711613494" x2="239.67971122767216" y2="115.43335630963684" style="stroke:green;stroke-width:3;opacity:0.9"/><line x1="230.67700477319164" y1="128.6602711613494" x2="225.9121785120135" y2="113.38622681478596" style="stroke:green;stroke-width:3;opacity:0.9"/><line x1="223.93255180901778" y1="150.64918550958512" x2="236.87394233733352" y2="131.6354954102483" style="stroke:green;stroke-width:3;opacity:0.9"/><line x1="236.87394233733352" y1="131.6354954102483" x2="245.87664879181403" y2="118.40858055853572" style="stroke:green;stroke-width:3;opacity:0.9"/><line x1="236.87394233733352" y1="131.6354954102483" x2="249.3833769246554" y2="121.65982268578932" style="stroke:green;stroke-width:3;opacity:0.9"/><line x1="236.87394233733352" y1="131.6354954102483" x2="236.83571868753702" y2="115.6355410680448" style="stroke:green;stroke-width:3;opacity:0.9"/><line x1="223.93255180901778" y1="150.64918550958512" x2="217.0831140585742" y2="128.69274676140014" style="stroke:green;stroke-width:3;opacity:0.9"/><line x1="217.0831140585742" y1="128.69274676140014" x2="212.31828779739607" y2="113.41870241483669" style="stroke:green;stroke-width:3;opacity:0.9"/><line x1="217.0831140585742" y1="128.69274676140014" x2="217.04489040877772" y2="112.69279241919665" style="stroke:green;stroke-width:3;opacity:0.9"/><line x1="217.0831140585742" y1="128.69274676140014" x2="204.52615906777794" y2="118.77695726388073" style="stroke:green;stroke-width:3;opacity:0.9"/><line x1="213.96249090545643" y1="183.15453715480314" x2="233.09324212122755" y2="155.0473430949139" style="stroke:black;stroke-width:2;opacity:0.9"/><line x1="233.09324212122755" y1="155.0473430949139" x2="246.03463264954328" y2="136.03365299557709" style="stroke:green;stroke-width:3;opacity:0.9"/><line x1="246.03463264954328" y1="136.03365299557709" x2="255.0373391040238" y2="122.80673814386451" style="stroke:green;stroke-width:3;opacity:0.9"/><line x1="246.03463264954328" y1="136.03365299557709" x2="258.5440672368652" y2="126.05798027111811" style="stroke:green;stroke-width:3;opacity:0.9"/><line x1="246.03463264954328" y1="136.03365299557709" x2="245.9964089997468" y2="120.03369865337359" style="stroke:green;stroke-width:3;opacity:0.9"/><line x1="233.09324212122755" y1="155.0473430949139" x2="251.07555434050278" y2="140.70731355350415" style="stroke:green;stroke-width:3;opacity:0.9"/><line x1="251.07555434050278" y1="140.70731355350415" x2="263.58498892782467" y2="130.73164082904518" style="stroke:green;stroke-width:3;opacity:0.9"/><line x1="251.07555434050278" y1="140.70731355350415" x2="265.9742865252193" y2="134.87398009071532" style="stroke:green;stroke-width:3;opacity:0.9"/><line x1="251.07555434050278" y1="140.70731355350415" x2="255.76734770688458" y2="125.41067748516626" style="stroke:green;stroke-width:3;opacity:0.9"/><line x1="233.09324212122755" y1="155.0473430949139" x2="233.03829562464506" y2="132.0474087279964" style="stroke:green;stroke-width:3;opacity:0.9"/><line x1="233.03829562464506" y1="132.0474087279964" x2="233.00007197484857" y2="116.04745438579292" style="stroke:green;stroke-width:3;opacity:0.9"/><line x1="233.03829562464506" y1="132.0474087279964" x2="237.73008899102686" y2="116.75077265965852" style="stroke:green;stroke-width:3;opacity:0.9"/><line x1="233.03829562464506" y1="132.0474087279964" x2="223.97249449114676" y2="118.8636592686104" style="stroke:green;stroke-width:3;opacity:0.9"/><line x1="213.96249090545643" y1="183.15453715480314" x2="203.83723510045292" y2="150.69719291835577" style="stroke:black;stroke-width:2;opacity:0.9"/><line x1="203.83723510045292" y1="150.69719291835577" x2="196.98779735000934" y2="128.7407541701708" style="stroke:green;stroke-width:3;opacity:0.9"/><line x1="196.98779735000934" y1="128.7407541701708" x2="192.22297108883123" y2="113.46670982360733" style="stroke:green;stroke-width:3;opacity:0.9"/><line x1="196.98779735000934" y1="128.7407541701708" x2="196.94957370021285" y2="112.7407998279673" style="stroke:green;stroke-width:3;opacity:0.9"/><line x1="196.98779735000934" y1="128.7407541701708" x2="184.43084235921305" y2="118.82496467265138" style="stroke:green;stroke-width:3;opacity:0.9"/><line x1="203.83723510045292" y1="150.69719291835577" x2="203.78228860387043" y2="127.69725855143825" style="stroke:green;stroke-width:3;opacity:0.9"/><line x1="203.78228860387043" y1="127.69725855143825" x2="203.74406495407393" y2="111.69730420923477" style="stroke:green;stroke-width:3;opacity:0.9"/><line x1="203.78228860387043" y1="127.69725855143825" x2="208.47408197025223" y2="112.40062248310036" style="stroke:green;stroke-width:3;opacity:0.9"/><line x1="203.78228860387043" y1="127.69725855143825" x2="194.71648747037213" y2="114.51350909205225" style="stroke:green;stroke-width:3;opacity:0.9"/><line x1="203.83723510045292" y1="150.69719291835577" x2="185.78661230118325" y2="136.4432455156716" style="stroke:green;stroke-width:3;opacity:0.9"/><line x1="185.78661230118325" y1="136.4432455156716" x2="173.22965731038698" y2="126.5274560181522" style="stroke:green;stroke-width:3;opacity:0.9"/><line x1="185.78661230118325" y1="136.4432455156716" x2="176.72081116768496" y2="123.2594960562856" style="stroke:green;stroke-width:3;opacity:0.9"/><line x1="185.78661230118325" y1="136.4432455156716" x2="169.82403422491737" y2="135.34958141773484" style="stroke:green;stroke-width:3;opacity:0.9"/><line x1="199.59387372091214" y1="230.00048511408792" x2="171.8298577495736" y2="189.62525239471825" style="stroke:black;stroke-width:2;opacity:0.9"/><line x1="171.8298577495736" y1="189.62525239471825" x2="152.5650303408897" y2="161.60978479352298" style="stroke:black;stroke-width:2;opacity:0.9"/><line x1="152.5650303408897" y1="161.60978479352298" x2="139.5329412114859" y2="142.65814494565558" style="stroke:green;stroke-width:3;opacity:0.9"/><line x1="139.5329412114859" y1="142.65814494565558" x2="130.4671400779876" y2="129.47439548626957" style="stroke:green;stroke-width:3;opacity:0.9"/><line x1="139.5329412114859" y1="142.65814494565558" x2="134.7681149503078" y2="127.38410059909212" style="stroke:green;stroke-width:3;opacity:0.9"/><line x1="139.5329412114859" y1="142.65814494565558" x2="124.60650775495304" y2="136.8960633541041" style="stroke:green;stroke-width:3;opacity:0.9"/><line x1="152.5650303408897" y1="161.60978479352298" x2="145.71559259044614" y2="139.653346045338" style="stroke:green;stroke-width:3;opacity:0.9"/><line x1="145.71559259044614" y1="139.653346045338" x2="140.950766329268" y2="124.37930169877454" style="stroke:green;stroke-width:3;opacity:0.9"/><line x1="145.71559259044614" y1="139.653346045338" x2="145.67736894064964" y2="123.6533917031345" style="stroke:green;stroke-width:3;opacity:0.9"/><line x1="145.71559259044614" y1="139.653346045338" x2="133.15863759964986" y2="129.7375565478186" style="stroke:green;stroke-width:3;opacity:0.9"/><line x1="152.5650303408897" y1="161.60978479352298" x2="131.10828224712373" y2="153.3267925056677" style="stroke:green;stroke-width:3;opacity:0.9"/><line x1="131.10828224712373" y1="153.3267925056677" x2="116.18184879059086" y2="147.5647109141162" style="stroke:green;stroke-width:3;opacity:0.9"/><line x1="131.10828224712373" y1="153.3267925056677" x2="118.55132725632744" y2="143.41100300814827" style="stroke:green;stroke-width:3;opacity:0.9"/><line x1="131.10828224712373" y1="153.3267925056677" x2="115.53544911011015" y2="156.99923965800792" style="stroke:green;stroke-width:3;opacity:0.9"/><line x1="171.8298577495736" y1="189.62525239471825" x2="161.70460194457007" y2="157.1679081582709" style="stroke:black;stroke-width:2;opacity:0.9"/><line x1="161.70460194457007" y1="157.1679081582709" x2="154.8551641941265" y2="135.21146941008593" style="stroke:green;stroke-width:3;opacity:0.9"/><line x1="154.8551641941265" y1="135.21146941008593" x2="150.0903379329484" y2="119.93742506352247" style="stroke:green;stroke-width:3;opacity:0.9"/><line x1="154.8551641941265" y1="135.21146941008593" x2="154.81694054433" y2="119.21151506788243" style="stroke:green;stroke-width:3;opacity:0.9"/><line x1="154.8551641941265" y1="135.21146941008593" x2="142.2982092033302" y2="125.29567991256651" style="stroke:green;stroke-width:3;opacity:0.9"/><line x1="161.70460194457007" y1="157.1679081582709" x2="161.64965544798758" y2="134.1679737913534" style="stroke:green;stroke-width:3;opacity:0.9"/><line x1="161.64965544798758" y1="134.1679737913534" x2="161.6114317981911" y2="118.16801944914991" style="stroke:green;stroke-width:3;opacity:0.9"/><line x1="161.64965544798758" y1="134.1679737913534" x2="166.3414488143694" y2="118.87133772301551" style="stroke:green;stroke-width:3;opacity:0.9"/><line x1="161.64965544798758" y1="134.1679737913534" x2="152.5838543144893" y2="120.9842243319674" style="stroke:green;stroke-width:3;opacity:0.9"/><line x1="161.70460194457007" y1="157.1679081582709" x2="143.6539791453004" y2="142.91396075558674" style="stroke:green;stroke-width:3;opacity:0.9"/><line x1="143.6539791453004" y1="142.91396075558674" x2="131.09702415450414" y2="132.99817125806732" style="stroke:green;stroke-width:3;opacity:0.9"/><line x1="143.6539791453004" y1="142.91396075558674" x2="134.5881780118021" y2="129.73021129620074" style="stroke:green;stroke-width:3;opacity:0.9"/><line x1="143.6539791453004" y1="142.91396075558674" x2="127.69140106903453" y2="141.82029665764998" style="stroke:green;stroke-width:3;opacity:0.9"/><line x1="171.8298577495736" y1="189.62525239471825" x2="140.11118665444127" y2="177.3808290126713" style="stroke:black;stroke-width:2;opacity:0.9"/><line x1="140.11118665444127" y1="177.3808290126713" x2="118.65443856067529" y2="169.09783672481603" style="stroke:green;stroke-width:3;opacity:0.9"/><line x1="118.65443856067529" y1="169.09783672481603" x2="103.72800510414243" y2="163.33575513326454" style="stroke:green;stroke-width:3;opacity:0.9"/><line x1="118.65443856067529" y1="169.09783672481603" x2="106.097483569879" y2="159.1820472272966" style="stroke:green;stroke-width:3;opacity:0.9"/><line x1="118.65443856067529" y1="169.09783672481603" x2="103.08160542366171" y2="172.77028387715626" style="stroke:green;stroke-width:3;opacity:0.9"/><line x1="140.11118665444127" y1="177.3808290126713" x2="122.06056385517161" y2="163.12688160998715" style="stroke:green;stroke-width:3;opacity:0.9"/><line x1="122.06056385517161" y1="163.12688160998715" x2="109.50360886437532" y2="153.21109211246772" style="stroke:green;stroke-width:3;opacity:0.9"/><line x1="122.06056385517161" y1="163.12688160998715" x2="112.99476272167331" y2="149.94313215060114" style="stroke:green;stroke-width:3;opacity:0.9"/><line x1="122.06056385517161" y1="163.12688160998715" x2="106.09798577890572" y2="162.03321751205038" style="stroke:green;stroke-width:3;opacity:0.9"/><line x1="140.11118665444127" y1="177.3808290126713" x2="117.72523901998426" y2="182.65997179416038" style="stroke:green;stroke-width:3;opacity:0.9"/><line x1="117.72523901998426" y1="182.65997179416038" x2="102.15240588297068" y2="186.3324189465006" style="stroke:green;stroke-width:3;opacity:0.9"/><line x1="117.72523901998426" y1="182.65997179416038" x2="101.76266094371837" y2="181.56630769622362" style="stroke:green;stroke-width:3;opacity:0.9"/><line x1="117.72523901998426" y1="182.65997179416038" x2="106.94604485047128" y2="194.48405624311192" style="stroke:green;stroke-width:3;opacity:0.9"/><line x1="199.76110218877184" y1="300.0002853612282" x2="220.28769816669225" y2="233.07750256224992" style="stroke:black;stroke-width:2;opacity:0.9"/><line x1="220.28769816669225" y1="233.07750256224992" x2="234.65631535123654" y2="186.23155460296513" style="stroke:black;stroke-width:2;opacity:0.9"/><line x1="234.65631535123654" y1="186.23155460296513" x2="244.6263762547979" y2="153.72620295774712" style="stroke:black;stroke-width:2;opacity:0.9"/><line x1="244.6263762547979" y1="153.72620295774712" x2="251.37082921897175" y2="131.7372886095114" style="stroke:green;stroke-width:3;opacity:0.9"/><line x1="251.37082921897175" y1="131.7372886095114" x2="256.06262258535355" y2="116.44065254117352" style="stroke:green;stroke-width:3;opacity:0.9"/><line x1="251.37082921897175" y1="131.7372886095114" x2="260.3735356734523" y2="118.51037375779883" style="stroke:green;stroke-width:3;opacity:0.9"/><line x1="251.37082921897175" y1="131.7372886095114" x2="246.60600295779363" y2="116.46324426294795" style="stroke:green;stroke-width:3;opacity:0.9"/><line x1="244.6263762547979" y1="153.72620295774712" x2="257.56776678311365" y2="134.7125128584103" style="stroke:green;stroke-width:3;opacity:0.9"/><line x1="257.56776678311365" y1="134.7125128584103" x2="266.5704732375942" y2="121.48559800669771" style="stroke:green;stroke-width:3;opacity:0.9"/><line x1="257.56776678311365" y1="134.7125128584103" x2="270.07720137043555" y2="124.73684013395132" style="stroke:green;stroke-width:3;opacity:0.9"/><line x1="257.56776678311365" y1="134.7125128584103" x2="257.52954313331713" y2="118.7125585162068" style="stroke:green;stroke-width:3;opacity:0.9"/><line x1="244.6263762547979" y1="153.72620295774712" x2="237.77693850435432" y2="131.76976420956214" style="stroke:green;stroke-width:3;opacity:0.9"/><line x1="237.77693850435432" y1="131.76976420956214" x2="233.0121122431762" y2="116.49571986299868" style="stroke:green;stroke-width:3;opacity:0.9"/><line x1="237.77693850435432" y1="131.76976420956214" x2="237.73871485455783" y2="115.76980986735865" style="stroke:green;stroke-width:3;opacity:0.9"/><line x1="237.77693850435432" y1="131.76976420956214" x2="225.21998351355802" y2="121.85397471204273" style="stroke:green;stroke-width:3;opacity:0.9"/><line x1="234.65631535123654" y1="186.23155460296513" x2="253.78706656700766" y2="158.1243605430759" style="stroke:black;stroke-width:2;opacity:0.9"/><line x1="253.78706656700766" y1="158.1243605430759" x2="266.7284570953234" y2="139.11067044373908" style="stroke:green;stroke-width:3;opacity:0.9"/><line x1="266.7284570953234" y1="139.11067044373908" x2="275.7311635498039" y2="125.8837555920265" style="stroke:green;stroke-width:3;opacity:0.9"/><line x1="266.7284570953234" y1="139.11067044373908" x2="279.2378916826453" y2="129.1349977192801" style="stroke:green;stroke-width:3;opacity:0.9"/><line x1="266.7284570953234" y1="139.11067044373908" x2="266.69023344552687" y2="123.11071610153559" style="stroke:green;stroke-width:3;opacity:0.9"/><line x1="253.78706656700766" y1="158.1243605430759" x2="271.76937878628286" y2="143.78433100166615" style="stroke:green;stroke-width:3;opacity:0.9"/><line x1="271.76937878628286" y1="143.78433100166615" x2="284.27881337360475" y2="133.80865827720717" style="stroke:green;stroke-width:3;opacity:0.9"/><line x1="271.76937878628286" y1="143.78433100166615" x2="286.6681109709994" y2="137.95099753887732" style="stroke:green;stroke-width:3;opacity:0.9"/><line x1="271.76937878628286" y1="143.78433100166615" x2="276.4611721526647" y2="128.48769493332827" style="stroke:green;stroke-width:3;opacity:0.9"/><line x1="253.78706656700766" y1="158.1243605430759" x2="253.73212007042517" y2="135.1244261761584" style="stroke:green;stroke-width:3;opacity:0.9"/><line x1="253.73212007042517" y1="135.1244261761584" x2="253.69389642062868" y2="119.12447183395491" style="stroke:green;stroke-width:3;opacity:0.9"/><line x1="253.73212007042517" y1="135.1244261761584" x2="258.42391343680697" y2="119.82779010782052" style="stroke:green;stroke-width:3;opacity:0.9"/><line x1="253.73212007042517" y1="135.1244261761584" x2="244.66631893692687" y2="121.9406767167724" style="stroke:green;stroke-width:3;opacity:0.9"/><line x1="234.65631535123654" y1="186.23155460296513" x2="224.53105954623302" y2="153.77421036651776" style="stroke:black;stroke-width:2;opacity:0.9"/><line x1="224.53105954623302" y1="153.77421036651776" x2="217.68162179578945" y2="131.81777161833278" style="stroke:green;stroke-width:3;opacity:0.9"/><line x1="217.68162179578945" y1="131.81777161833278" x2="212.9167955346113" y2="116.54372727176933" style="stroke:green;stroke-width:3;opacity:0.9"/><line x1="217.68162179578945" y1="131.81777161833278" x2="217.64339814599296" y2="115.81781727612929" style="stroke:green;stroke-width:3;opacity:0.9"/><line x1="217.68162179578945" y1="131.81777161833278" x2="205.12466680499318" y2="121.90198212081337" style="stroke:green;stroke-width:3;opacity:0.9"/><line x1="224.53105954623302" y1="153.77421036651776" x2="224.47611304965054" y2="130.77427599960026" style="stroke:green;stroke-width:3;opacity:0.9"/><line x1="224.47611304965054" y1="130.77427599960026" x2="224.43788939985404" y2="114.77432165739677" style="stroke:green;stroke-width:3;opacity:0.9"/><line x1="224.47611304965054" y1="130.77427599960026" x2="229.16790641603234" y2="115.47763993126237" style="stroke:green;stroke-width:3;opacity:0.9"/><line x1="224.47611304965054" y1="130.77427599960026" x2="215.41031191615224" y2="117.59052654021426" style="stroke:green;stroke-width:3;opacity:0.9"/><line x1="224.53105954623302" y1="153.77421036651776" x2="206.48043674696336" y2="139.5202629638336" style="stroke:green;stroke-width:3;opacity:0.9"/><line x1="206.48043674696336" y1="139.5202629638336" x2="193.92348175616706" y2="129.60447346631418" style="stroke:green;stroke-width:3;opacity:0.9"/><line x1="206.48043674696336" y1="139.5202629638336" x2="197.41463561346507" y2="126.3365135044476" style="stroke:green;stroke-width:3;opacity:0.9"/><line x1="206.48043674696336" y1="139.5202629638336" x2="190.51785867069748" y2="138.42659886589684" style="stroke:green;stroke-width:3;opacity:0.9"/><line x1="220.28769816669225" y1="233.07750256224992" x2="247.85848668353884" y2="192.57007582888014" style="stroke:black;stroke-width:2;opacity:0.9"/><line x1="247.85848668353884" y1="192.57007582888014" x2="266.98923789930996" y2="164.4628817689909" style="stroke:black;stroke-width:2;opacity:0.9"/><line x1="266.98923789930996" y1="164.4628817689909" x2="279.9306284276257" y2="145.44919166965408" style="stroke:green;stroke-width:3;opacity:0.9"/><line x1="279.9306284276257" y1="145.44919166965408" x2="288.93333488210624" y2="132.2222768179415" style="stroke:green;stroke-width:3;opacity:0.9"/><line x1="279.9306284276257" y1="145.44919166965408" x2="292.4400630149476" y2="135.4735189451951" style="stroke:green;stroke-width:3;opacity:0.9"/><line x1="279.9306284276257" y1="145.44919166965408" x2="279.8924047778292" y2="129.4492373274506" style="stroke:green;stroke-width:3;opacity:0.9"/><line x1="266.98923789930996" y1="164.4628817689909" x2="284.9715501185852" y2="150.12285222758112" style="stroke:green;stroke-width:3;opacity:0.9"/><line x1="284.9715501185852" y1="150.12285222758112" x2="297.4809847059071" y2="140.14717950312215" style="stroke:green;stroke-width:3;opacity:0.9"/><line x1="284.9715501185852" y1="150.12285222758112" x2="299.87028230330174" y2="144.2895187647923" style="stroke:green;stroke-width:3;opacity:0.9"/><line x1="284.9715501185852" y1="150.12285222758112" x2="289.663343484967" y2="134.82621615924324" style="stroke:green;stroke-width:3;opacity:0.9"/><line x1="266.98923789930996" y1="164.4628817689909" x2="266.93429140272747" y2="141.46294740207338" style="stroke:green;stroke-width:3;opacity:0.9"/><line x1="266.93429140272747" y1="141.46294740207338" x2="266.89606775293095" y2="125.46299305986989" style="stroke:green;stroke-width:3;opacity:0.9"/><line x1="266.93429140272747" y1="141.46294740207338" x2="271.6260847691093" y2="126.16631133373549" style="stroke:green;stroke-width:3;opacity:0.9"/><line x1="266.93429140272747" y1="141.46294740207338" x2="257.86849026922914" y2="128.27919794268738" style="stroke:green;stroke-width:3;opacity:0.9"/><line x1="247.85848668353884" y1="192.57007582888014" x2="274.44103518159784" y2="171.37177128940482" style="stroke:black;stroke-width:2;opacity:0.9"/><line x1="274.44103518159784" y1="171.37177128940482" x2="292.42334740087307" y2="157.03174174799506" style="stroke:green;stroke-width:3;opacity:0.9"/><line x1="292.42334740087307" y1="157.03174174799506" x2="304.93278198819496" y2="147.05606902353608" style="stroke:green;stroke-width:3;opacity:0.9"/><line x1="292.42334740087307" y1="157.03174174799506" x2="307.3220795855896" y2="151.19840828520623" style="stroke:green;stroke-width:3;opacity:0.9"/><line x1="292.42334740087307" y1="157.03174174799506" x2="297.1151407672549" y2="141.73510567965718" style="stroke:green;stroke-width:3;opacity:0.9"/><line x1="274.44103518159784" y1="171.37177128940482" x2="295.85796269712785" y2="162.98635443664588" style="stroke:green;stroke-width:3;opacity:0.9"/><line x1="295.85796269712785" y1="162.98635443664588" x2="310.7566948818444" y2="157.15302097385705" style="stroke:green;stroke-width:3;opacity:0.9"/><line x1="295.85796269712785" y1="162.98635443664588" x2="311.81513310534547" y2="161.81643454062566" style="stroke:green;stroke-width:3;opacity:0.9"/><line x1="295.85796269712785" y1="162.98635443664588" x2="304.86066915160836" y2="149.7594395849333" style="stroke:green;stroke-width:3;opacity:0.9"/><line x1="274.44103518159784" y1="171.37177128940482" x2="281.18548814577167" y2="149.3828569411691" style="stroke:green;stroke-width:3;opacity:0.9"/><line x1="281.18548814577167" y1="149.3828569411691" x2="285.8772815121535" y2="134.08622087283123" style="stroke:green;stroke-width:3;opacity:0.9"/><line x1="281.18548814577167" y1="149.3828569411691" x2="290.1881946002522" y2="136.15594208945652" style="stroke:green;stroke-width:3;opacity:0.9"/><line x1="281.18548814577167" y1="149.3828569411691" x2="276.4206618845935" y2="134.10881259460564" style="stroke:green;stroke-width:3;opacity:0.9"/><line x1="247.85848668353884" y1="192.57007582888014" x2="247.77726142772127" y2="158.57017285169772" style="stroke:black;stroke-width:2;opacity:0.9"/><line x1="247.77726142772127" y1="158.57017285169772" x2="247.72231493113878" y2="135.5702384847802" style="stroke:green;stroke-width:3;opacity:0.9"/><line x1="247.72231493113878" y1="135.5702384847802" x2="247.6840912813423" y2="119.5702841425767" style="stroke:green;stroke-width:3;opacity:0.9"/><line x1="247.72231493113878" y1="135.5702384847802" x2="252.41410829752058" y2="120.2736024164423" style="stroke:green;stroke-width:3;opacity:0.9"/><line x1="247.72231493113878" y1="135.5702384847802" x2="238.65651379764049" y2="122.38648902539418" style="stroke:green;stroke-width:3;opacity:0.9"/><line x1="247.77726142772127" y1="158.57017285169772" x2="254.52171439189513" y2="136.581258503462" style="stroke:green;stroke-width:3;opacity:0.9"/><line x1="254.52171439189513" y1="136.581258503462" x2="259.21350775827693" y2="121.28462243512412" style="stroke:green;stroke-width:3;opacity:0.9"/><line x1="254.52171439189513" y1="136.581258503462" x2="263.5244208463757" y2="123.35434365174943" style="stroke:green;stroke-width:3;opacity:0.9"/><line x1="254.52171439189513" y1="136.581258503462" x2="249.75688813071702" y2="121.30721415689855" style="stroke:green;stroke-width:3;opacity:0.9"/><line x1="247.77726142772127" y1="158.57017285169772" x2="234.74517229831747" y2="139.61853300383032" style="stroke:green;stroke-width:3;opacity:0.9"/><line x1="234.74517229831747" y1="139.61853300383032" x2="225.67937116481917" y2="126.43478354444431" style="stroke:green;stroke-width:3;opacity:0.9"/><line x1="234.74517229831747" y1="139.61853300383032" x2="229.98034603713933" y2="124.34448865726687" style="stroke:green;stroke-width:3;opacity:0.9"/><line x1="234.74517229831747" y1="139.61853300383032" x2="219.8187388417846" y2="133.85645141227883" style="stroke:green;stroke-width:3;opacity:0.9"/><line x1="220.28769816669225" y1="233.07750256224992" x2="205.69541774183423" y2="186.3007417508993" style="stroke:black;stroke-width:2;opacity:0.9"/><line x1="205.69541774183423" y1="186.3007417508993" x2="195.57016193683071" y2="153.84339751445196" style="stroke:black;stroke-width:2;opacity:0.9"/><line x1="195.57016193683071" y1="153.84339751445196" x2="188.72072418638714" y2="131.88695876626699" style="stroke:green;stroke-width:3;opacity:0.9"/><line x1="188.72072418638714" y1="131.88695876626699" x2="183.955897925209" y2="116.61291441970353" style="stroke:green;stroke-width:3;opacity:0.9"/><line x1="188.72072418638714" y1="131.88695876626699" x2="188.68250053659065" y2="115.88700442406349" style="stroke:green;stroke-width:3;opacity:0.9"/><line x1="188.72072418638714" y1="131.88695876626699" x2="176.16376919559087" y2="121.97116926874757" style="stroke:green;stroke-width:3;opacity:0.9"/><line x1="195.57016193683071" y1="153.84339751445196" x2="195.51521544024823" y2="130.84346314753446" style="stroke:green;stroke-width:3;opacity:0.9"/><line x1="195.51521544024823" y1="130.84346314753446" x2="195.47699179045173" y2="114.84350880533097" style="stroke:green;stroke-width:3;opacity:0.9"/><line x1="195.51521544024823" y1="130.84346314753446" x2="200.20700880663003" y2="115.54682707919658" style="stroke:green;stroke-width:3;opacity:0.9"/><line x1="195.51521544024823" y1="130.84346314753446" x2="186.44941430674993" y2="117.65971368814846" style="stroke:green;stroke-width:3;opacity:0.9"/><line x1="195.57016193683071" y1="153.84339751445196" x2="177.51953913756105" y2="139.5894501117678" style="stroke:green;stroke-width:3;opacity:0.9"/><line x1="177.51953913756105" y1="139.5894501117678" x2="164.96258414676475" y2="129.67366061424838" style="stroke:green;stroke-width:3;opacity:0.9"/><line x1="177.51953913756105" y1="139.5894501117678" x2="168.45373800406276" y2="126.4057006523818" style="stroke:green;stroke-width:3;opacity:0.9"/><line x1="177.51953913756105" y1="139.5894501117678" x2="161.55696106129517" y2="138.49578601383104" style="stroke:green;stroke-width:3;opacity:0.9"/><line x1="205.69541774183423" y1="186.3007417508993" x2="205.61419248601666" y2="152.3008387737169" style="stroke:black;stroke-width:2;opacity:0.9"/><line x1="205.61419248601666" y1="152.3008387737169" x2="205.55924598943417" y2="129.30090440679936" style="stroke:green;stroke-width:3;opacity:0.9"/><line x1="205.55924598943417" y1="129.30090440679936" x2="205.52102233963768" y2="113.30095006459587" style="stroke:green;stroke-width:3;opacity:0.9"/><line x1="205.55924598943417" y1="129.30090440679936" x2="210.25103935581598" y2="114.00426833846147" style="stroke:green;stroke-width:3;opacity:0.9"/><line x1="205.55924598943417" y1="129.30090440679936" x2="196.49344485593588" y2="116.11715494741335" style="stroke:green;stroke-width:3;opacity:0.9"/><line x1="205.61419248601666" y1="152.3008387737169" x2="212.35864545019052" y2="130.31192442548118" style="stroke:green;stroke-width:3;opacity:0.9"/><line x1="212.35864545019052" y1="130.31192442548118" x2="217.05043881657232" y2="115.01528835714329" style="stroke:green;stroke-width:3;opacity:0.9"/><line x1="212.35864545019052" y1="130.31192442548118" x2="221.36135190467104" y2="117.0850095737686" style="stroke:green;stroke-width:3;opacity:0.9"/><line x1="212.35864545019052" y1="130.31192442548118" x2="207.59381918901238" y2="115.03788007891772" style="stroke:green;stroke-width:3;opacity:0.9"/><line x1="205.61419248601666" y1="152.3008387737169" x2="192.58210335661286" y2="133.3491989258495" style="stroke:green;stroke-width:3;opacity:0.9"/><line x1="192.58210335661286" y1="133.3491989258495" x2="183.51630222311456" y2="120.16544946646349" style="stroke:green;stroke-width:3;opacity:0.9"/><line x1="192.58210335661286" y1="133.3491989258495" x2="187.81727709543475" y2="118.07515457928604" style="stroke:green;stroke-width:3;opacity:0.9"/><line x1="192.58210335661286" y1="133.3491989258495" x2="177.65566990008" y2="127.587117334298" style="stroke:green;stroke-width:3;opacity:0.9"/><line x1="205.69541774183423" y1="186.3007417508993" x2="179.01188838639212" y2="165.22968906867055" style="stroke:black;stroke-width:2;opacity:0.9"/><line x1="179.01188838639212" y1="165.22968906867055" x2="160.96126558712245" y2="150.9757416659864" style="stroke:green;stroke-width:3;opacity:0.9"/><line x1="160.96126558712245" y1="150.9757416659864" x2="148.40431059632618" y2="141.05995216846696" style="stroke:green;stroke-width:3;opacity:0.9"/><line x1="160.96126558712245" y1="150.9757416659864" x2="151.89546445362416" y2="137.79199220660038" style="stroke:green;stroke-width:3;opacity:0.9"/><line x1="160.96126558712245" y1="150.9757416659864" x2="144.99868751085657" y2="149.88207756804962" style="stroke:green;stroke-width:3;opacity:0.9"/><line x1="179.01188838639212" y1="165.22968906867055" x2="165.97979925698831" y2="146.27804922080315" style="stroke:green;stroke-width:3;opacity:0.9"/><line x1="165.97979925698831" y1="146.27804922080315" x2="156.91399812349002" y2="133.09429976141715" style="stroke:green;stroke-width:3;opacity:0.9"/><line x1="165.97979925698831" y1="146.27804922080315" x2="161.21497299581017" y2="131.00400487423968" style="stroke:green;stroke-width:3;opacity:0.9"/><line x1="165.97979925698831" y1="146.27804922080315" x2="151.05336580045545" y2="140.51596762925166" style="stroke:green;stroke-width:3;opacity:0.9"/><line x1="179.01188838639212" y1="165.22968906867055" x2="156.06568240175991" y2="163.65754692788644" style="stroke:green;stroke-width:3;opacity:0.9"/><line x1="156.06568240175991" y1="163.65754692788644" x2="140.10310432549403" y2="162.56388282994968" style="stroke:green;stroke-width:3;opacity:0.9"/><line x1="156.06568240175991" y1="163.65754692788644" x2="141.13924894522705" y2="157.89546533633495" style="stroke:green;stroke-width:3;opacity:0.9"/><line x1="156.06568240175991" y1="163.65754692788644" x2="142.2736690083189" y2="171.7680565638553" style="stroke:green;stroke-width:3;opacity:0.9"/><line x1="199.76110218877184" y1="300.0002853612282" x2="160.09822222971678" y2="242.3213814764144" style="stroke:black;stroke-width:2;opacity:0.9"/><line x1="160.09822222971678" y1="242.3213814764144" x2="132.33420625837823" y2="201.94614875704474" style="stroke:black;stroke-width:2;opacity:0.9"/><line x1="132.33420625837823" y1="201.94614875704474" x2="113.06937884969435" y2="173.93068115584947" style="stroke:black;stroke-width:2;opacity:0.9"/><line x1="113.06937884969435" y1="173.93068115584947" x2="100.03728972029054" y2="154.97904130798207" style="stroke:green;stroke-width:3;opacity:0.9"/><line x1="100.03728972029054" y1="154.97904130798207" x2="90.97148858679225" y2="141.79529184859607" style="stroke:green;stroke-width:3;opacity:0.9"/><line x1="100.03728972029054" y1="154.97904130798207" x2="95.27246345911242" y2="139.7049969614186" style="stroke:green;stroke-width:3;opacity:0.9"/><line x1="100.03728972029054" y1="154.97904130798207" x2="85.11085626375768" y2="149.21695971643058" style="stroke:green;stroke-width:3;opacity:0.9"/><line x1="113.06937884969435" y1="173.93068115584947" x2="106.21994109925079" y2="151.9742424076645" style="stroke:green;stroke-width:3;opacity:0.9"/><line x1="106.21994109925079" y1="151.9742424076645" x2="101.45511483807266" y2="136.70019806110102" style="stroke:green;stroke-width:3;opacity:0.9"/><line x1="106.21994109925079" y1="151.9742424076645" x2="106.18171744945428" y2="135.974288065461" style="stroke:green;stroke-width:3;opacity:0.9"/><line x1="106.21994109925079" y1="151.9742424076645" x2="93.6629861084545" y2="142.0584529101451" style="stroke:green;stroke-width:3;opacity:0.9"/><line x1="113.06937884969435" y1="173.93068115584947" x2="91.61263075592837" y2="165.6476888679942" style="stroke:green;stroke-width:3;opacity:0.9"/><line x1="91.61263075592837" y1="165.6476888679942" x2="76.6861972993955" y2="159.8856072764427" style="stroke:green;stroke-width:3;opacity:0.9"/><line x1="91.61263075592837" y1="165.6476888679942" x2="79.05567576513208" y2="155.73189937047476" style="stroke:green;stroke-width:3;opacity:0.9"/><line x1="91.61263075592837" y1="165.6476888679942" x2="76.03979761891479" y2="169.32013602033442" style="stroke:green;stroke-width:3;opacity:0.9"/><line x1="132.33420625837823" y1="201.94614875704474" x2="122.20895045337471" y2="169.4888045205974" style="stroke:black;stroke-width:2;opacity:0.9"/><line x1="122.20895045337471" y1="169.4888045205974" x2="115.35951270293116" y2="147.53236577241242" style="stroke:green;stroke-width:3;opacity:0.9"/><line x1="115.35951270293116" y1="147.53236577241242" x2="110.59468644175303" y2="132.25832142584895" style="stroke:green;stroke-width:3;opacity:0.9"/><line x1="115.35951270293116" y1="147.53236577241242" x2="115.32128905313465" y2="131.53241143020892" style="stroke:green;stroke-width:3;opacity:0.9"/><line x1="115.35951270293116" y1="147.53236577241242" x2="102.80255771213487" y2="137.61657627489302" style="stroke:green;stroke-width:3;opacity:0.9"/><line x1="122.20895045337471" y1="169.4888045205974" x2="122.15400395679224" y2="146.4888701536799" style="stroke:green;stroke-width:3;opacity:0.9"/><line x1="122.15400395679224" y1="146.4888701536799" x2="122.11578030699573" y2="130.4889158114764" style="stroke:green;stroke-width:3;opacity:0.9"/><line x1="122.15400395679224" y1="146.4888701536799" x2="126.84579732317405" y2="131.19223408534202" style="stroke:green;stroke-width:3;opacity:0.9"/><line x1="122.15400395679224" y1="146.4888701536799" x2="113.08820282329394" y2="133.3051206942939" style="stroke:green;stroke-width:3;opacity:0.9"/><line x1="122.20895045337471" y1="169.4888045205974" x2="104.15832765410505" y2="155.23485711791324" style="stroke:green;stroke-width:3;opacity:0.9"/><line x1="104.15832765410505" y1="155.23485711791324" x2="91.60137266330877" y2="145.3190676203938" style="stroke:green;stroke-width:3;opacity:0.9"/><line x1="104.15832765410505" y1="155.23485711791324" x2="95.09252652060675" y2="142.05110765852723" style="stroke:green;stroke-width:3;opacity:0.9"/><line x1="104.15832765410505" y1="155.23485711791324" x2="88.19574957783917" y2="154.14119301997647" style="stroke:green;stroke-width:3;opacity:0.9"/><line x1="132.33420625837823" y1="201.94614875704474" x2="100.61553516324591" y2="189.7017253749978" style="stroke:black;stroke-width:2;opacity:0.9"/><line x1="100.61553516324591" y1="189.7017253749978" x2="79.15878706947993" y2="181.41873308714253" style="stroke:green;stroke-width:3;opacity:0.9"/><line x1="79.15878706947993" y1="181.41873308714253" x2="64.23235361294707" y2="175.65665149559103" style="stroke:green;stroke-width:3;opacity:0.9"/><line x1="79.15878706947993" y1="181.41873308714253" x2="66.60183207868364" y2="171.5029435896231" style="stroke:green;stroke-width:3;opacity:0.9"/><line x1="79.15878706947993" y1="181.41873308714253" x2="63.58595393246635" y2="185.09118023948275" style="stroke:green;stroke-width:3;opacity:0.9"/><line x1="100.61553516324591" y1="189.7017253749978" x2="82.56491236397625" y2="175.44777797231365" style="stroke:green;stroke-width:3;opacity:0.9"/><line x1="82.56491236397625" y1="175.44777797231365" x2="70.00795737317996" y2="165.53198847479422" style="stroke:green;stroke-width:3;opacity:0.9"/><line x1="82.56491236397625" y1="175.44777797231365" x2="73.49911123047795" y2="162.26402851292764" style="stroke:green;stroke-width:3;opacity:0.9"/><line x1="82.56491236397625" y1="175.44777797231365" x2="66.60233428771036" y2="174.35411387437688" style="stroke:green;stroke-width:3;opacity:0.9"/><line x1="100.61553516324591" y1="189.7017253749978" x2="78.2295875287889" y2="194.98086815648688" style="stroke:green;stroke-width:3;opacity:0.9"/><line x1="78.2295875287889" y1="194.98086815648688" x2="62.65675439177532" y2="198.6533153088271" style="stroke:green;stroke-width:3;opacity:0.9"/><line x1="78.2295875287889" y1="194.98086815648688" x2="62.26700945252301" y2="193.8872040585501" style="stroke:green;stroke-width:3;opacity:0.9"/><line x1="78.2295875287889" y1="194.98086815648688" x2="67.45039335927592" y2="206.80495260543842" style="stroke:green;stroke-width:3;opacity:0.9"/><line x1="160.09822222971678" y1="242.3213814764144" x2="145.50594180485876" y2="195.54462066506377" style="stroke:black;stroke-width:2;opacity:0.9"/><line x1="145.50594180485876" y1="195.54462066506377" x2="135.38068599985525" y2="163.0872764286164" style="stroke:black;stroke-width:2;opacity:0.9"/><line x1="135.38068599985525" y1="163.0872764286164" x2="128.53124824941168" y2="141.13083768043143" style="stroke:green;stroke-width:3;opacity:0.9"/><line x1="128.53124824941168" y1="141.13083768043143" x2="123.76642198823355" y2="125.85679333386797" style="stroke:green;stroke-width:3;opacity:0.9"/><line x1="128.53124824941168" y1="141.13083768043143" x2="128.49302459961518" y2="125.13088333822793" style="stroke:green;stroke-width:3;opacity:0.9"/><line x1="128.53124824941168" y1="141.13083768043143" x2="115.97429325861539" y2="131.21504818291203" style="stroke:green;stroke-width:3;opacity:0.9"/><line x1="135.38068599985525" y1="163.0872764286164" x2="135.32573950327276" y2="140.0873420616989" style="stroke:green;stroke-width:3;opacity:0.9"/><line x1="135.32573950327276" y1="140.0873420616989" x2="135.28751585347626" y2="124.08738771949541" style="stroke:green;stroke-width:3;opacity:0.9"/><line x1="135.32573950327276" y1="140.0873420616989" x2="140.01753286965456" y2="124.79070599336102" style="stroke:green;stroke-width:3;opacity:0.9"/><line x1="135.32573950327276" y1="140.0873420616989" x2="126.25993836977446" y2="126.9035926023129" style="stroke:green;stroke-width:3;opacity:0.9"/><line x1="135.38068599985525" y1="163.0872764286164" x2="117.33006320058558" y2="148.83332902593224" style="stroke:green;stroke-width:3;opacity:0.9"/><line x1="117.33006320058558" y1="148.83332902593224" x2="104.7731082097893" y2="138.91753952841282" style="stroke:green;stroke-width:3;opacity:0.9"/><line x1="117.33006320058558" y1="148.83332902593224" x2="108.26426206708729" y2="135.64957956654624" style="stroke:green;stroke-width:3;opacity:0.9"/><line x1="117.33006320058558" y1="148.83332902593224" x2="101.3674851243197" y2="147.73966492799548" style="stroke:green;stroke-width:3;opacity:0.9"/><line x1="145.50594180485876" y1="195.54462066506377" x2="145.4247165490412" y2="161.54471768788136" style="stroke:black;stroke-width:2;opacity:0.9"/><line x1="145.4247165490412" y1="161.54471768788136" x2="145.3697700524587" y2="138.54478332096386" style="stroke:green;stroke-width:3;opacity:0.9"/><line x1="145.3697700524587" y1="138.54478332096386" x2="145.3315464026622" y2="122.54482897876036" style="stroke:green;stroke-width:3;opacity:0.9"/><line x1="145.3697700524587" y1="138.54478332096386" x2="150.0615634188405" y2="123.24814725262597" style="stroke:green;stroke-width:3;opacity:0.9"/><line x1="145.3697700524587" y1="138.54478332096386" x2="136.3039689189604" y2="125.36103386157785" style="stroke:green;stroke-width:3;opacity:0.9"/><line x1="145.4247165490412" y1="161.54471768788136" x2="152.16916951321505" y2="139.55580333964565" style="stroke:green;stroke-width:3;opacity:0.9"/><line x1="152.16916951321505" y1="139.55580333964565" x2="156.86096287959685" y2="124.25916727130776" style="stroke:green;stroke-width:3;opacity:0.9"/><line x1="152.16916951321505" y1="139.55580333964565" x2="161.17187596769557" y2="126.32888848793307" style="stroke:green;stroke-width:3;opacity:0.9"/><line x1="152.16916951321505" y1="139.55580333964565" x2="147.40434325203694" y2="124.28175899308219" style="stroke:green;stroke-width:3;opacity:0.9"/><line x1="145.4247165490412" y1="161.54471768788136" x2="132.3926274196374" y2="142.59307784001396" style="stroke:green;stroke-width:3;opacity:0.9"/><line x1="132.3926274196374" y1="142.59307784001396" x2="123.3268262861391" y2="129.40932838062795" style="stroke:green;stroke-width:3;opacity:0.9"/><line x1="132.3926274196374" y1="142.59307784001396" x2="127.62780115845926" y2="127.3190334934505" style="stroke:green;stroke-width:3;opacity:0.9"/><line x1="132.3926274196374" y1="142.59307784001396" x2="117.46619396310453" y2="136.83099624846247" style="stroke:green;stroke-width:3;opacity:0.9"/><line x1="145.50594180485876" y1="195.54462066506377" x2="118.82241244941666" y2="174.47356798283502" style="stroke:black;stroke-width:2;opacity:0.9"/><line x1="118.82241244941666" y1="174.47356798283502" x2="100.771789650147" y2="160.21962058015086" style="stroke:green;stroke-width:3;opacity:0.9"/><line x1="100.771789650147" y1="160.21962058015086" x2="88.21483465935071" y2="150.30383108263146" style="stroke:green;stroke-width:3;opacity:0.9"/><line x1="100.771789650147" y1="160.21962058015086" x2="91.7059885166487" y2="147.03587112076485" style="stroke:green;stroke-width:3;opacity:0.9"/><line x1="100.771789650147" y1="160.21962058015086" x2="84.80921157388112" y2="159.1259564822141" style="stroke:green;stroke-width:3;opacity:0.9"/><line x1="118.82241244941666" y1="174.47356798283502" x2="105.79032332001286" y2="155.52192813496762" style="stroke:green;stroke-width:3;opacity:0.9"/><line x1="105.79032332001286" y1="155.52192813496762" x2="96.72452218651456" y2="142.33817867558162" style="stroke:green;stroke-width:3;opacity:0.9"/><line x1="105.79032332001286" y1="155.52192813496762" x2="101.02549705883473" y2="140.24788378840415" style="stroke:green;stroke-width:3;opacity:0.9"/><line x1="105.79032332001286" y1="155.52192813496762" x2="90.86388986348001" y2="149.75984654341613" style="stroke:green;stroke-width:3;opacity:0.9"/><line x1="118.82241244941666" y1="174.47356798283502" x2="95.87620646478446" y2="172.9014258420509" style="stroke:green;stroke-width:3;opacity:0.9"/><line x1="95.87620646478446" y1="172.9014258420509" x2="79.91362838851858" y2="171.80776174411415" style="stroke:green;stroke-width:3;opacity:0.9"/><line x1="95.87620646478446" y1="172.9014258420509" x2="80.9497730082516" y2="167.13934425049942" style="stroke:green;stroke-width:3;opacity:0.9"/><line x1="95.87620646478446" y1="172.9014258420509" x2="82.08419307134345" y2="181.01193547801978" style="stroke:green;stroke-width:3;opacity:0.9"/><line x1="160.09822222971678" y1="242.3213814764144" x2="114.38601976908491" y2="224.67500660228794" style="stroke:black;stroke-width:2;opacity:0.9"/><line x1="114.38601976908491" y1="224.67500660228794" x2="82.66734867395259" y2="212.430583220241" style="stroke:black;stroke-width:2;opacity:0.9"/><line x1="82.66734867395259" y1="212.430583220241" x2="61.21060058018661" y2="204.14759093238573" style="stroke:green;stroke-width:3;opacity:0.9"/><line x1="61.21060058018661" y1="204.14759093238573" x2="46.28416712365375" y2="198.38550934083423" style="stroke:green;stroke-width:3;opacity:0.9"/><line x1="61.21060058018661" y1="204.14759093238573" x2="48.65364558939032" y2="194.23180143486633" style="stroke:green;stroke-width:3;opacity:0.9"/><line x1="61.21060058018661" y1="204.14759093238573" x2="45.63776744317303" y2="207.82003808472595" style="stroke:green;stroke-width:3;opacity:0.9"/><line x1="82.66734867395259" y1="212.430583220241" x2="64.61672587468293" y2="198.17663581755684" style="stroke:green;stroke-width:3;opacity:0.9"/><line x1="64.61672587468293" y1="198.17663581755684" x2="52.05977088388664" y2="188.26084632003744" style="stroke:green;stroke-width:3;opacity:0.9"/><line x1="64.61672587468293" y1="198.17663581755684" x2="55.55092474118463" y2="184.99288635817084" style="stroke:green;stroke-width:3;opacity:0.9"/><line x1="64.61672587468293" y1="198.17663581755684" x2="48.65414779841704" y2="197.08297171962008" style="stroke:green;stroke-width:3;opacity:0.9"/><line x1="82.66734867395259" y1="212.430583220241" x2="60.28140103949557" y2="217.70972600173008" style="stroke:green;stroke-width:3;opacity:0.9"/><line x1="60.28140103949557" y1="217.70972600173008" x2="44.70856790248199" y2="221.3821731540703" style="stroke:green;stroke-width:3;opacity:0.9"/><line x1="60.28140103949557" y1="217.70972600173008" x2="44.31882296322969" y2="216.6160619037933" style="stroke:green;stroke-width:3;opacity:0.9"/><line x1="60.28140103949557" y1="217.70972600173008" x2="49.502206869982594" y2="229.5338104506816" style="stroke:green;stroke-width:3;opacity:0.9"/><line x1="114.38601976908491" y1="224.67500660228794" x2="87.7024904136428" y2="203.60395392005918" style="stroke:black;stroke-width:2;opacity:0.9"/><line x1="87.7024904136428" y1="203.60395392005918" x2="69.65186761437315" y2="189.35000651737502" style="stroke:green;stroke-width:3;opacity:0.9"/><line x1="69.65186761437315" y1="189.35000651737502" x2="57.09491262357686" y2="179.43421701985562" style="stroke:green;stroke-width:3;opacity:0.9"/><line x1="69.65186761437315" y1="189.35000651737502" x2="60.58606648087485" y2="176.16625705798901" style="stroke:green;stroke-width:3;opacity:0.9"/><line x1="69.65186761437315" y1="189.35000651737502" x2="53.68928953810726" y2="188.25634241943825" style="stroke:green;stroke-width:3;opacity:0.9"/><line x1="87.7024904136428" y1="203.60395392005918" x2="74.670401284239" y2="184.65231407219179" style="stroke:green;stroke-width:3;opacity:0.9"/><line x1="74.670401284239" y1="184.65231407219179" x2="65.60460015074071" y2="171.46856461280578" style="stroke:green;stroke-width:3;opacity:0.9"/><line x1="74.670401284239" y1="184.65231407219179" x2="69.90557502306088" y2="169.37826972562831" style="stroke:green;stroke-width:3;opacity:0.9"/><line x1="74.670401284239" y1="184.65231407219179" x2="59.74396782770615" y2="178.8902324806403" style="stroke:green;stroke-width:3;opacity:0.9"/><line x1="87.7024904136428" y1="203.60395392005918" x2="64.7562844290106" y2="202.03181177927507" style="stroke:green;stroke-width:3;opacity:0.9"/><line x1="64.7562844290106" y1="202.03181177927507" x2="48.79370635274472" y2="200.9381476813383" style="stroke:green;stroke-width:3;opacity:0.9"/><line x1="64.7562844290106" y1="202.03181177927507" x2="49.82985097247775" y2="196.26973018772358" style="stroke:green;stroke-width:3;opacity:0.9"/><line x1="64.7562844290106" y1="202.03181177927507" x2="50.96427103556959" y2="210.14232141524394" style="stroke:green;stroke-width:3;opacity:0.9"/><line x1="114.38601976908491" y1="224.67500660228794" x2="81.29374935293106" y2="232.47895680101092" style="stroke:black;stroke-width:2;opacity:0.9"/><line x1="81.29374935293106" y1="232.47895680101092" x2="58.90780171847404" y2="237.7580995825" style="stroke:green;stroke-width:3;opacity:0.9"/><line x1="58.90780171847404" y1="237.7580995825" x2="43.33496858146046" y2="241.43054673484022" style="stroke:green;stroke-width:3;opacity:0.9"/><line x1="58.90780171847404" y1="237.7580995825" x2="42.94522364220816" y2="236.66443548456323" style="stroke:green;stroke-width:3;opacity:0.9"/><line x1="58.90780171847404" y1="237.7580995825" x2="48.128607548961064" y2="249.58218403145153" style="stroke:green;stroke-width:3;opacity:0.9"/><line x1="81.29374935293106" y1="232.47895680101092" x2="58.34754336829886" y2="230.90681466022681" style="stroke:green;stroke-width:3;opacity:0.9"/><line x1="58.34754336829886" y1="230.90681466022681" x2="42.38496529203297" y2="229.81315056229005" style="stroke:green;stroke-width:3;opacity:0.9"/><line x1="58.34754336829886" y1="230.90681466022681" x2="43.421109911766" y2="225.14473306867532" style="stroke:green;stroke-width:3;opacity:0.9"/><line x1="58.34754336829886" y1="230.90681466022681" x2="44.55552997485784" y2="239.01732429619568" style="stroke:green;stroke-width:3;opacity:0.9"/><line x1="81.29374935293106" y1="232.47895680101092" x2="65.79865773425615" y2="249.47607819637875" style="stroke:green;stroke-width:3;opacity:0.9"/><line x1="65.79865773425615" y1="249.47607819637875" x2="55.01946356474318" y2="261.30016264533026" style="stroke:green;stroke-width:3;opacity:0.9"/><line x1="65.79865773425615" y1="249.47607819637875" x2="52.006644340815136" y2="257.5865878323476" style="stroke:green;stroke-width:3;opacity:0.9"/><line x1="65.79865773425615" y1="249.47607819637875" x2="63.57858517501811" y2="265.3213070628773" style="stroke:green;stroke-width:3;opacity:0.9"/></svg>
