<svg width="400" height="400" xmlns="http://www.w3.org/2000/svg"><circle cx="200" cy="200" r="100" style="fill:lightgreen;opacity:0.5;stroke:black;stroke-width:2"/><circle cx="300" cy="200" r="50" style="fill:lightgreen;opacity:0.5;stroke:black;stroke-width:2"/><circle cx="350" cy="200" r="25" style="fill:lightgreen;opacity:0.5;stroke:black;stroke-width:2"/><circle cx="375" cy="200" r="12" style="fill:lightgreen;opacity:0.5;stroke:black;stroke-width:2"/><circle cx="325" cy="200" r="12" style="fill:lightgreen;opacity:0.5;stroke:black;stroke-width:2"/><circle cx="350" cy="225" r="12" style="fill:lightgreen;opacity:0.5;stroke:black;stroke-width:2"/><circle cx="350" cy="175" r="12" style="fill:lightgreen;opacity:0.5;stroke:black;stroke-width:2"/><circle cx="250" cy="200" r="25" style="fill:lightgreen;opacity:0.5;stroke:black;stroke-width:2"/><circle cx="275" cy="200" r="12" style="fill:lightgreen;opacity:0.5;stroke:black;stroke-width:2"/><circle cx="225" cy="200" r="12" style="fill:lightgreen;opacity:0.5;stroke:black;stroke-width:2"/><circle cx="250" cy="225" r="12" style="fill:lightgreen;opacity:0.5;stroke:black;stroke-width:2"/><circle cx="250" cy="175" r="12" style="fill:lightgreen;opacity:0.5;stroke:black;stroke-width:2"/><circle cx="300" cy="250" r="25" style="fill:lightgreen;opacity:0.5;stroke:black;stroke-width:2"/><circle cx="325" cy="250" r="12" style="fill:lightgreen;opacity:0.5;stroke:black;stroke-width:2"/><circle cx="275" cy="250" r="12" style="fill:lightgreen;opacity:0.5;stroke:black;stroke-width:2"/><circle cx="300" cy="275" r="12" style="fill:lightgreen;opacity:0.5;stroke:black;stroke-width:2"/><circle cx="300" cy="225" r="12" style="fill:lightgreen;opacity:0.5;stroke:black;stroke-width:2"/><circle cx="300" cy="150" r="25" style="fill:lightgreen;opacity:0.5;stroke:black;stroke-width:2"/><circle cx="325" cy="150" r="12" style="fill:lightgreen;opacity:0.5;stroke:black;stroke-width:2"/><circle cx="275" cy="150" r="12" style="fill:lightgreen;opacity:0.5;stroke:black;stroke-width:2"/><circle cx="300" cy="175" r="12" style="fill:lightgreen;opacity:0.5;stroke:black;stroke-width:2"/><circle cx="300" cy="125" r="12" style="fill:lightgreen;opacity:0.5;stroke:black;stroke-width:2"/><circle cx="100" cy="200" r="50" style="fill:lightgreen;opacity:0.5;stroke:black;stroke-width:2"/><circle cx="150" cy="200" r="25" style="fill:lightgreen;opacity:0.5;stroke:black;stroke-width:2"/><circle cx="175" cy="200" r="12" style="fill:lightgreen;opacity:0.5;stroke:black;stroke-width:2"/><circle cx="125" cy="200" r="12" style="fill:lightgreen;opacity:0.5;stroke:black;stroke-width:2"/><circle cx="150" cy="225" r="12" style="fill:lightgreen;opacity:0.5;stroke:black;stroke-width:2"/><circle cx="150" cy="175" r="12" style="fill:lightgreen;opacity:0.5;stroke:black;stroke-width:2"/><circle cx="50" cy="200" r="25" style="fill:lightgreen;opacity:0.5;stroke:black;stroke-width:2"/><circle cx="75" cy="200" r="12" style="fill:lightgreen;opacity:0.5;stroke:black;stroke-width:2"/><circle cx="25" cy="200" r="12" style="fill:lightgreen;opacity:0.5;stroke:black;stroke-width:2"/><circle cx="50" cy="225" r="12" style="fill:lightgreen;opacity:0.5;stroke:black;stroke-width:2"/><circle cx="50" cy="175" r="12" style="fill:lightgreen;opacity:0.5;stroke:black;stroke-width:2"/><circle cx="100" cy="250" r="25" style="fill:lightgreen;opacity:0.5;stroke:black;stroke-width:2"/><circle cx="125" cy="250" r="12" style="fill:lightgreen;opacity:0.5;stroke:black;stroke-width:2"/><circle cx="75" cy="250" r="12" style="fill:lightgreen;opacity:0.5;stroke:black;stroke-width:2"/><circle cx="100" cy="275" r="12" style="fill:lightgreen;opacity:0.5;stroke:black;stroke-width:2"/><circle cx="100" cy="225" r="12" style="fill:lightgreen;opacity:0.5;stroke:black;stroke-width:2"/><circle cx="100" cy="150" r="25" style="fill:lightgreen;opacity:0.5;stroke:black;stroke-width:2"/><circle cx="125" cy="150" r="12" style="fill:lightgreen;opacity:0.5;stroke:black;stroke-width:2"/><circle cx="75" cy="150" r="12" style="fill:lightgreen;opacity:0.5;stroke:black;stroke-width:2"/><circle cx="100" cy="175" r="12" style="fill:lightgreen;opacity:0.5;stroke:black;stroke-width:2"/><circle cx="100" cy="125" r="12" style="fill:lightgreen;opacity:0.5;stroke:black;stroke-width:2"/><circle cx="200" cy="300" r="50" style="fill:lightgreen;opacity:0.5;stroke:black;stroke-width:2"/><circle cx="250" cy="300" r="25" style="fill:lightgreen;opacity:0.5;stroke:black;stroke-width:2"/><circle cx="275" cy="300" r="12" style="fill:lightgreen;opacity:0.5;stroke:black;stroke-width:2"/><circle cx="225" cy="300" r="12" style="fill:lightgreen;opacity:0.5;stroke:black;stroke-width:2"/><circle cx="250" cy="325" r="12" style="fill:lightgreen;opacity:0.5;stroke:black;stroke-width:2"/><circle cx="250" cy="275" r="12" style="fill:lightgreen;opacity:0.5;stroke:black;stroke-width:2"/><circle cx="150" cy="300" r="25" style="fill:lightgreen;opacity:0.5;stroke:black;stroke-width:2"/><circle cx="175" cy="300" r="12" style="fill:lightgreen;opacity:0.5;stroke:black;stroke-width:2"/><circle cx="125" cy="300" r="12" style="fill:lightgreen;opacity:0.5;stroke:black;stroke-width:2"/><circle cx="150" cy="325" r="12" style="fill:lightgreen;opacity:0.5;stroke:black;stroke-width:2"/><circle cx="150" cy="275" r="12" style="fill:lightgreen;opacity:0.5;stroke:black;stroke-width:2"/><circle cx="200" cy="350" r="25" style="fill:lightgreen;opacity:0.5;stroke:black;stroke-width:2"/><circle cx="225" cy="350" r="12" style="fill:lightgreen;opacity:0.5;stroke:black;stroke-width:2"/><circle cx="175" cy="350" r="12" style="fill:lightgreen;opacity:0.5;stroke:black;stroke-width:2"/><circle cx="200" cy="375" r="12" style="fill:lightgreen;opacity:0.5;stroke:black;stroke-width:2"/><circle cx="200" cy="325" r="12" style="fill:lightgreen;opacity:0.5;stroke:black;stroke-width:2"/><circle cx="200" cy="250" r="25" style="fill:lightgreen;opacity:0.5;stroke:black;stroke-width:2"/><circle cx="225" cy="250" r="12" style="fill:lightgreen;opacity:0.5;stroke:black;stroke-width:2"/><circle cx="175" cy="250" r="12" style="fill:lightgreen;opacity:0.5;stroke:black;stroke-width:2"/><circle cx="200" cy="275" r="12" style="fill:lightgreen;opacity:0.5;stroke:black;stroke-width:2"/><circle cx="200" cy="225" r="12" style="fill:lightgreen;opacity:0.5;stroke:black;stroke-width:2"/><circle cx="200" cy="100" r="50" style="fill:lightgreen;opacity:0.5;stroke:black;stroke-width:2"/><circle cx="250" cy="100" r="25" style="fill:lightgreen;opacity:0.5;stroke:black;stroke-width:2"/><circle cx="275" cy="100" r="12" style="fill:lightgreen;opacity:0.5;stroke:black;stroke-width:2"/><circle cx="225" cy="100" r="12" style="fill:lightgreen;opacity:0.5;stroke:black;stroke-width:2"/><circle cx="250" cy="125" r="12" style="fill:lightgreen;opacity:0.5;stroke:black;stroke-width:2"/><circle cx="250" cy="75" r="12" style="fill:lightgreen;opacity:0.5;stroke:black;stroke-width:2"/><circle cx="150" cy="100" r="25" style="fill:lightgreen;opacity:0.5;stroke:black;stroke-width:2"/><circle cx="175" cy="100" r="12" style="fill:lightgreen;opacity:0.5;stroke:black;stroke-width:2"/><circle cx="125" cy="100" r="12" style="fill:lightgreen;opacity:0.5;stroke:black;stroke-width:2"/><circle cx="150" cy="125" r="12" style="fill:lightgreen;opacity:0.5;stroke:black;stroke-width:2"/><circle cx="150" cy="75" r="12" style="fill:lightgreen;opacity:0.5;stroke:black;stroke-width:2"/><circle cx="200" cy="150" r="25" style="fill:lightgreen;opacity:0.5;stroke:black;stroke-width:2"/><circle cx="225" cy="150" r="12" style="fill:lightgreen;opacity:0.5;stroke:black;stroke-width:2"/><circle cx="175" cy="150" r="12" style="fill:lightgreen;opacity:0.5;stroke:black;stroke-width:2"/><circle cx="200" cy="175" r="12" style="fill:lightgreen;opacity:0.5;stroke:black;stroke-width:2"/><circle cx="200" cy="125" r="12" style="fill:lightgreen;opacity:0.5;stroke:black;stroke-width:2"/><circle cx="200" cy="50" r="25" style="fill:lightgreen;opacity:0.5;stroke:black;stroke-width:2"/><circle cx="225" cy="50" r="12" style="fill:lightgreen;opacity:0.5;stroke:black;stroke-width:2"/><circle cx="175" cy="50" r="12" style="fill:lightgreen;opacity:0.5;stroke:black;stroke-width:2"/><circle cx="200" cy="75" r="12" style="fill:lightgreen;opacity:0.5;stroke:black;stroke-width:2"/><circle cx="200" cy="25" r="12" style="fill:lightgreen;opacity:0.5;stroke:black;stroke-width:2"/></svg>
