<svg version="1.1" viewBox="0.0 0.0 1024.0 420.0" fill="none" stroke="none" stroke-linecap="square" stroke-miterlimit="10" xmlns:xlink="http://www.w3.org/1999/xlink" xmlns="http://www.w3.org/2000/svg"><clipPath id="p.0"><path d="m0 0l1024.0 0l0 768.0l-1024.0 0l0 -768.0z" clip-rule="nonzero"/></clipPath><g clip-path="url(#p.0)"><path fill="#000000" fill-opacity="0.0" d="m0 0l1024.0 0l0 768.0l-1024.0 0z" fill-rule="evenodd"/><path fill="#cfe2f3" d="m465.98425 31.191755l0 0c0 -4.235718 3.4337158 -7.669445 7.6694336 -7.669445l30.67688 0l0 0c2.0340576 0 3.9848022 0.80802727 5.4230957 2.2463284c1.438324 1.4382992 2.246338 3.3890533 2.246338 5.4231167l0 33.73197c0 4.235718 -3.4337158 7.669449 -7.6694336 7.669449l-30.67688 0c-4.235718 0 -7.6694336 -3.433731 -7.6694336 -7.669449z" fill-rule="evenodd"/><path stroke="#000000" stroke-width="1.0" stroke-linejoin="round" stroke-linecap="butt" d="m465.98425 31.191755l0 0c0 -4.235718 3.4337158 -7.669445 7.6694336 -7.669445l30.67688 0l0 0c2.0340576 0 3.9848022 0.80802727 5.4230957 2.2463284c1.438324 1.4382992 2.246338 3.3890533 2.246338 5.4231167l0 33.73197c0 4.235718 -3.4337158 7.669449 -7.6694336 7.669449l-30.67688 0c-4.235718 0 -7.6694336 -3.433731 -7.6694336 -7.669449z" fill-rule="evenodd"/><path fill="#000000" d="m490.7574 54.97774l-1.640625 0l0 -10.453125q-0.59375 0.5625 -1.5625 1.140625q-0.953125 0.5625 -1.71875 0.84375l0 -1.59375q1.375 -0.640625 2.40625 -1.5625q1.03125 -0.921875 1.453125 -1.78125l1.0625 0l0 13.40625z" fill-rule="nonzero"/><path fill="#cfe2f3" d="m273.36746 121.842674l0 0c0 -4.235718 3.4337158 -7.669449 7.6694336 -7.669449l30.67685 0l0 0c2.0340881 0 3.9848328 0.8080292 5.423126 2.2463303c1.4382935 1.4383011 2.246338 3.3890533 2.246338 5.4231186l0 33.73197c0 4.235718 -3.4337463 7.669449 -7.669464 7.669449l-30.67685 0c-4.235718 0 -7.6694336 -3.433731 -7.6694336 -7.669449z" fill-rule="evenodd"/><path stroke="#000000" stroke-width="1.0" stroke-linejoin="round" stroke-linecap="butt" d="m273.36746 121.842674l0 0c0 -4.235718 3.4337158 -7.669449 7.6694336 -7.669449l30.67685 0l0 0c2.0340881 0 3.9848328 0.8080292 5.423126 2.2463303c1.4382935 1.4383011 2.246338 3.3890533 2.246338 5.4231186l0 33.73197c0 4.235718 -3.4337463 7.669449 -7.669464 7.669449l-30.67685 0c-4.235718 0 -7.6694336 -3.433731 -7.6694336 -7.669449z" fill-rule="evenodd"/><path fill="#000000" d="m300.5781 144.05054l0 1.578125l-8.828125 0q-0.015625 -0.59375 0.1875 -1.140625q0.34375 -0.90625 1.078125 -1.78125q0.75 -0.875 2.15625 -2.015625q2.171875 -1.78125 2.9375 -2.828125q0.765625 -1.046875 0.765625 -1.96875q0 -0.984375 -0.703125 -1.640625q-0.6875 -0.671875 -1.8125 -0.671875q-1.1875 0 -1.90625 0.71875q-0.703125 0.703125 -0.703125 1.953125l-1.6875 -0.171875q0.171875 -1.890625 1.296875 -2.875q1.140625 -0.984375 3.03125 -0.984375q1.921875 0 3.046875 1.0625q1.125 1.0625 1.125 2.640625q0 0.796875 -0.328125 1.578125q-0.328125 0.78125 -1.09375 1.640625q-0.75 0.84375 -2.53125 2.34375q-1.46875 1.234375 -1.890625 1.6875q-0.421875 0.4375 -0.6875 0.875l6.546875 0z" fill-rule="nonzero"/><path fill="#cfe2f3" d="m638.0866 121.842674l0 0c0 -4.235718 3.4337158 -7.669449 7.6694336 -7.669449l30.67688 0l0 0c2.0340576 0 3.9848022 0.8080292 5.4230957 2.2463303c1.4382935 1.4383011 2.246338 3.3890533 2.246338 5.4231186l0 33.73197c0 4.235718 -3.4337158 7.669449 -7.6694336 7.669449l-30.67688 0c-4.235718 0 -7.6694336 -3.433731 -7.6694336 -7.669449z" fill-rule="evenodd"/><path stroke="#000000" stroke-width="1.0" stroke-linejoin="round" stroke-linecap="butt" d="m638.0866 121.842674l0 0c0 -4.235718 3.4337158 -7.669449 7.6694336 -7.669449l30.67688 0l0 0c2.0340576 0 3.9848022 0.8080292 5.4230957 2.2463303c1.4382935 1.4383011 2.246338 3.3890533 2.246338 5.4231186l0 33.73197c0 4.235718 -3.4337158 7.669449 -7.6694336 7.669449l-30.67688 0c-4.235718 0 -7.6694336 -3.433731 -7.6694336 -7.669449z" fill-rule="evenodd"/><path fill="#000000" d="m656.68787 142.09741l1.640625 -0.21875q0.28125 1.40625 0.953125 2.015625q0.6875 0.609375 1.65625 0.609375q1.15625 0 1.953125 -0.796875q0.796875 -0.796875 0.796875 -1.984375q0 -1.125 -0.734375 -1.859375q-0.734375 -0.734375 -1.875 -0.734375q-0.46875 0 -1.15625 0.171875l0.1875 -1.4375q0.15625 0.015625 0.265625 0.015625q1.046875 0 1.875 -0.546875q0.84375 -0.546875 0.84375 -1.671875q0 -0.90625 -0.609375 -1.5q-0.609375 -0.59375 -1.578125 -0.59375q-0.953125 0 -1.59375 0.609375q-0.640625 0.59375 -0.8125 1.796875l-1.640625 -0.296875q0.296875 -1.640625 1.359375 -2.546875q1.0625 -0.90625 2.65625 -0.90625q1.09375 0 2.0 0.46875q0.921875 0.46875 1.40625 1.28125q0.5 0.8125 0.5 1.71875q0 0.859375 -0.46875 1.578125q-0.46875 0.703125 -1.375 1.125q1.1875 0.28125 1.84375 1.140625q0.65625 0.859375 0.65625 2.15625q0 1.734375 -1.28125 2.953125q-1.265625 1.21875 -3.21875 1.21875q-1.765625 0 -2.921875 -1.046875q-1.15625 -1.046875 -1.328125 -2.71875z" fill-rule="nonzero"/><path fill="#cfe2f3" d="m178.55905 241.79018l0 0c0 -4.235718 3.433731 -7.669449 7.669449 -7.669449l30.676865 0l0 0c2.0340576 0 3.9848175 0.8080292 5.423111 2.246338c1.4382935 1.4382935 2.2463226 3.3890533 2.2463226 5.423111l0 33.73198c0 4.235718 -3.4337158 7.6694336 -7.6694336 7.6694336l-30.676865 0c-4.235718 0 -7.669449 -3.4337158 -7.669449 -7.6694336z" fill-rule="evenodd"/><path stroke="#000000" stroke-width="1.0" stroke-linejoin="round" stroke-linecap="butt" d="m178.55905 241.79018l0 0c0 -4.235718 3.433731 -7.669449 7.669449 -7.669449l30.676865 0l0 0c2.0340576 0 3.9848175 0.8080292 5.423111 2.246338c1.4382935 1.4382935 2.2463226 3.3890533 2.2463226 5.423111l0 33.73198c0 4.235718 -3.4337158 7.6694336 -7.6694336 7.6694336l-30.676865 0c-4.235718 0 -7.669449 -3.4337158 -7.669449 -7.6694336z" fill-rule="evenodd"/><path fill="#000000" d="m202.41032 265.57617l0 -3.203125l-5.796875 0l0 -1.5l6.09375 -8.65625l1.34375 0l0 8.65625l1.796875 0l0 1.5l-1.796875 0l0 3.203125l-1.640625 0zm0 -4.703125l0 -6.015625l-4.1875 6.015625l4.1875 0z" fill-rule="nonzero"/><path fill="#cfe2f3" d="m355.11548 241.79018l0 0c0 -4.235718 3.4337463 -7.669449 7.669464 -7.669449l30.67685 0l0 0c2.0340576 0 3.9848022 0.8080292 5.423126 2.246338c1.4382935 1.4382935 2.2463074 3.3890533 2.2463074 5.423111l0 33.73198c0 4.235718 -3.4337158 7.6694336 -7.6694336 7.6694336l-30.67685 0c-4.235718 0 -7.669464 -3.4337158 -7.669464 -7.6694336z" fill-rule="evenodd"/><path stroke="#000000" stroke-width="1.0" stroke-linejoin="round" stroke-linecap="butt" d="m355.11548 241.79018l0 0c0 -4.235718 3.4337463 -7.669449 7.669464 -7.669449l30.67685 0l0 0c2.0340576 0 3.9848022 0.8080292 5.423126 2.246338c1.4382935 1.4382935 2.2463074 3.3890533 2.2463074 5.423111l0 33.73198c0 4.235718 -3.4337158 7.6694336 -7.6694336 7.6694336l-30.67685 0c-4.235718 0 -7.669464 -3.4337158 -7.669464 -7.6694336z" fill-rule="evenodd"/><path fill="#000000" d="m373.71674 262.07617l1.71875 -0.140625q0.1875 1.25 0.875 1.890625q0.703125 0.625 1.6875 0.625q1.1875 0 2.0 -0.890625q0.828125 -0.890625 0.828125 -2.359375q0 -1.40625 -0.796875 -2.21875q-0.78125 -0.8125 -2.0625 -0.8125q-0.78125 0 -1.421875 0.359375q-0.640625 0.359375 -1.0 0.9375l-1.546875 -0.203125l1.296875 -6.859375l6.640625 0l0 1.5625l-5.328125 0l-0.71875 3.59375q1.203125 -0.84375 2.515625 -0.84375q1.75 0 2.953125 1.21875q1.203125 1.203125 1.203125 3.109375q0 1.8125 -1.046875 3.140625q-1.296875 1.625 -3.515625 1.625q-1.8125 0 -2.96875 -1.015625q-1.15625 -1.03125 -1.3125 -2.71875z" fill-rule="nonzero"/><path fill="#cfe2f3" d="m91.93438 356.62482l0 0c0 -4.235718 3.433731 -7.6694336 7.669449 -7.6694336l30.676857 0l0 0c2.0340576 0 3.9848175 0.8080139 5.423111 2.246338c1.4383087 1.4382935 2.246338 3.389038 2.246338 5.4230957l0 33.731995c0 4.235718 -3.433731 7.6694336 -7.669449 7.6694336l-30.676857 0c-4.235718 0 -7.669449 -3.4337158 -7.669449 -7.6694336z" fill-rule="evenodd"/><path stroke="#000000" stroke-width="1.0" stroke-linejoin="round" stroke-linecap="butt" d="m91.93438 356.62482l0 0c0 -4.235718 3.433731 -7.6694336 7.669449 -7.6694336l30.676857 0l0 0c2.0340576 0 3.9848175 0.8080139 5.423111 2.246338c1.4383087 1.4382935 2.246338 3.389038 2.246338 5.4230957l0 33.731995c0 4.235718 -3.433731 7.6694336 -7.669449 7.6694336l-30.676857 0c-4.235718 0 -7.669449 -3.4337158 -7.669449 -7.6694336z" fill-rule="evenodd"/><path fill="#000000" d="m110.64502 368.80142l0 -1.578125l8.640625 0l0 1.28125q-1.28125 1.359375 -2.53125 3.609375q-1.25 2.25 -1.9375 4.625q-0.484375 1.671875 -0.625 3.671875l-1.6875 0q0.03125 -1.578125 0.625 -3.8125q0.59375 -2.234375 1.6875 -4.296875q1.109375 -2.078125 2.359375 -3.5l-6.53125 0z" fill-rule="nonzero"/><path fill="#cfe2f3" d="m548.6903 241.79018l0 0c0 -4.235718 3.4337158 -7.669449 7.6694336 -7.669449l30.67688 0l0 0c2.0340576 0 3.9848022 0.8080292 5.4230957 2.246338c1.4382935 1.4382935 2.246338 3.3890533 2.246338 5.423111l0 33.73198c0 4.235718 -3.4337158 7.6694336 -7.6694336 7.6694336l-30.67688 0c-4.235718 0 -7.6694336 -3.4337158 -7.6694336 -7.6694336z" fill-rule="evenodd"/><path stroke="#000000" stroke-width="1.0" stroke-linejoin="round" stroke-linecap="butt" d="m548.6903 241.79018l0 0c0 -4.235718 3.4337158 -7.669449 7.6694336 -7.669449l30.67688 0l0 0c2.0340576 0 3.9848022 0.8080292 5.4230957 2.246338c1.4382935 1.4382935 2.246338 3.3890533 2.246338 5.423111l0 33.73198c0 4.235718 -3.4337158 7.6694336 -7.6694336 7.6694336l-30.67688 0c-4.235718 0 -7.6694336 -3.4337158 -7.6694336 -7.6694336z" fill-rule="evenodd"/><path fill="#000000" d="m575.79156 255.49805l-1.625 0.125q-0.21875 -0.96875 -0.625 -1.40625q-0.65625 -0.703125 -1.640625 -0.703125q-0.78125 0 -1.375 0.4375q-0.765625 0.5625 -1.21875 1.65625q-0.453125 1.078125 -0.46875 3.078125q0.59375 -0.890625 1.453125 -1.328125q0.859375 -0.4375 1.796875 -0.4375q1.640625 0 2.78125 1.203125q1.15625 1.203125 1.15625 3.109375q0 1.265625 -0.546875 2.34375q-0.53125 1.078125 -1.484375 1.65625q-0.9375 0.578125 -2.140625 0.578125q-2.0625 0 -3.359375 -1.5q-1.28125 -1.515625 -1.28125 -4.984375q0 -3.875 1.421875 -5.625q1.25 -1.53125 3.375 -1.53125q1.5625 0 2.5625 0.890625q1.015625 0.875 1.21875 2.4375zm-6.6875 5.75q0 0.84375 0.359375 1.625q0.359375 0.765625 1.0 1.171875q0.640625 0.40625 1.359375 0.40625q1.03125 0 1.78125 -0.828125q0.75 -0.84375 0.75 -2.28125q0 -1.390625 -0.734375 -2.1875q-0.734375 -0.796875 -1.859375 -0.796875q-1.109375 0 -1.890625 0.796875q-0.765625 0.796875 -0.765625 2.09375z" fill-rule="nonzero"/><path fill="#cfe2f3" d="m475.72177 356.62482l0 0c0 -4.235718 3.4337463 -7.6694336 7.669464 -7.6694336l30.67688 0l0 0c2.0340576 0 3.9848022 0.8080139 5.4230957 2.246338c1.4382935 1.4382935 2.246338 3.389038 2.246338 5.4230957l0 33.731995c0 4.235718 -3.4337158 7.6694336 -7.6694336 7.6694336l-30.67688 0c-4.235718 0 -7.669464 -3.4337158 -7.669464 -7.6694336z" fill-rule="evenodd"/><path stroke="#000000" stroke-width="1.0" stroke-linejoin="round" stroke-linecap="butt" d="m475.72177 356.62482l0 0c0 -4.235718 3.4337463 -7.6694336 7.669464 -7.6694336l30.67688 0l0 0c2.0340576 0 3.9848022 0.8080139 5.4230957 2.246338c1.4382935 1.4382935 2.246338 3.389038 2.246338 5.4230957l0 33.731995c0 4.235718 -3.4337158 7.6694336 -7.6694336 7.6694336l-30.67688 0c-4.235718 0 -7.669464 -3.4337158 -7.669464 -7.6694336z" fill-rule="evenodd"/><path fill="#000000" d="m496.83868 373.17642q-1.015625 -0.375 -1.515625 -1.0625q-0.484375 -0.703125 -0.484375 -1.671875q0 -1.453125 1.046875 -2.4375q1.046875 -1.0 2.78125 -1.0q1.75 0 2.8125 1.015625q1.078125 1.015625 1.078125 2.46875q0 0.9375 -0.5 1.625q-0.484375 0.6875 -1.46875 1.0625q1.21875 0.390625 1.859375 1.28125q0.65625 0.890625 0.65625 2.140625q0 1.703125 -1.21875 2.875q-1.21875 1.171875 -3.1875 1.171875q-1.984375 0 -3.203125 -1.171875q-1.203125 -1.171875 -1.203125 -2.921875q0 -1.3125 0.65625 -2.1875q0.671875 -0.875 1.890625 -1.1875zm-0.328125 -2.78125q0 0.9375 0.609375 1.546875q0.609375 0.59375 1.59375 0.59375q0.9375 0 1.546875 -0.59375q0.609375 -0.59375 0.609375 -1.453125q0 -0.90625 -0.625 -1.515625q-0.625 -0.625 -1.5625 -0.625q-0.9375 0 -1.5625 0.609375q-0.609375 0.59375 -0.609375 1.4375zm-0.53125 6.15625q0 0.703125 0.328125 1.359375q0.34375 0.65625 1.0 1.015625q0.65625 0.359375 1.40625 0.359375q1.171875 0 1.9375 -0.75q0.765625 -0.75 0.765625 -1.921875q0 -1.1875 -0.796875 -1.953125q-0.78125 -0.78125 -1.953125 -0.78125q-1.15625 0 -1.921875 0.765625q-0.765625 0.765625 -0.765625 1.90625z" fill-rule="nonzero"/><path fill="#cfe2f3" d="m616.4829 356.62482l0 0c0 -4.235718 3.4337769 -7.6694336 7.6694946 -7.6694336l30.676819 0l0 0c2.0340576 0 3.9848633 0.8080139 5.4231567 2.246338c1.4382935 1.4382935 2.2462769 3.389038 2.2462769 5.4230957l0 33.731995c0 4.235718 -3.4337158 7.6694336 -7.6694336 7.6694336l-30.676819 0c-4.235718 0 -7.6694946 -3.4337158 -7.6694946 -7.6694336z" fill-rule="evenodd"/><path stroke="#000000" stroke-width="1.0" stroke-linejoin="round" stroke-linecap="butt" d="m616.4829 356.62482l0 0c0 -4.235718 3.4337769 -7.6694336 7.6694946 -7.6694336l30.676819 0l0 0c2.0340576 0 3.9848633 0.8080139 5.4231567 2.246338c1.4382935 1.4382935 2.2462769 3.389038 2.2462769 5.4230957l0 33.731995c0 4.235718 -3.4337158 7.6694336 -7.6694336 7.6694336l-30.676819 0c-4.235718 0 -7.6694946 -3.4337158 -7.6694946 -7.6694336z" fill-rule="evenodd"/><path fill="#000000" d="m635.3186 377.31705l1.578125 -0.140625q0.203125 1.109375 0.765625 1.609375q0.5625 0.5 1.453125 0.5q0.75 0 1.3125 -0.34375q0.578125 -0.34375 0.9375 -0.921875q0.375 -0.578125 0.609375 -1.5625q0.25 -0.984375 0.25 -2.0q0 -0.109375 0 -0.328125q-0.5 0.78125 -1.359375 1.265625q-0.84375 0.484375 -1.828125 0.484375q-1.671875 0 -2.8125 -1.203125q-1.140625 -1.203125 -1.140625 -3.171875q0 -2.03125 1.1875 -3.265625q1.203125 -1.234375 3.0 -1.234375q1.3125 0 2.390625 0.703125q1.078125 0.703125 1.640625 2.0q0.5625 1.296875 0.5625 3.75q0 2.5625 -0.5625 4.078125q-0.5625 1.515625 -1.65625 2.3125q-1.09375 0.796875 -2.578125 0.796875q-1.5625 0 -2.5625 -0.875q-0.984375 -0.875 -1.1875 -2.453125zm6.71875 -5.890625q0 -1.40625 -0.75 -2.234375q-0.75 -0.828125 -1.8125 -0.828125q-1.09375 0 -1.90625 0.890625q-0.8125 0.890625 -0.8125 2.3125q0 1.28125 0.765625 2.078125q0.78125 0.796875 1.90625 0.796875q1.140625 0 1.875 -0.796875q0.734375 -0.796875 0.734375 -2.21875z" fill-rule="nonzero"/><path fill="#000000" fill-opacity="0.0" d="m488.99213 72.59318l-192.62991 41.5748" fill-rule="evenodd"/><path stroke="#000000" stroke-width="1.0" stroke-linejoin="round" stroke-linecap="butt" d="m488.99213 72.59318l-192.62991 41.5748" fill-rule="evenodd"/><path fill="#000000" fill-opacity="0.0" d="m661.0945 114.173225l-172.09448 -41.5748" fill-rule="evenodd"/><path stroke="#000000" stroke-width="1.0" stroke-linejoin="round" stroke-linecap="butt" d="m661.0945 114.173225l-172.09448 -41.5748" fill-rule="evenodd"/><path fill="#000000" fill-opacity="0.0" d="m378.12335 234.12073l-81.73227 -70.866135" fill-rule="evenodd"/><path stroke="#000000" stroke-width="1.0" stroke-linejoin="round" stroke-linecap="butt" d="m378.12335 234.12073l-81.73227 -70.866135" fill-rule="evenodd"/><path fill="#000000" fill-opacity="0.0" d="m201.56693 234.12073l94.80316 -70.866135" fill-rule="evenodd"/><path stroke="#000000" stroke-width="1.0" stroke-linejoin="round" stroke-linecap="butt" d="m201.56693 234.12073l94.80316 -70.866135" fill-rule="evenodd"/><path fill="#000000" fill-opacity="0.0" d="m114.94226 348.95538l86.61417 -65.763794" fill-rule="evenodd"/><path stroke="#000000" stroke-width="1.0" stroke-linejoin="round" stroke-linecap="butt" d="m114.94226 348.95538l86.61417 -65.763794" fill-rule="evenodd"/><path fill="#000000" fill-opacity="0.0" d="m498.72964 348.95538l72.97641 -65.763794" fill-rule="evenodd"/><path stroke="#000000" stroke-width="1.0" stroke-linejoin="round" stroke-linecap="butt" d="m498.72964 348.95538l72.97641 -65.763794" fill-rule="evenodd"/><path fill="#000000" fill-opacity="0.0" d="m639.4908 348.95538l-67.77948 -65.763794" fill-rule="evenodd"/><path stroke="#000000" stroke-width="1.0" stroke-linejoin="round" stroke-linecap="butt" d="m639.4908 348.95538l-67.77948 -65.763794" fill-rule="evenodd"/><path fill="#000000" fill-opacity="0.0" d="m571.6982 234.12073l89.3858 -70.866135" fill-rule="evenodd"/><path stroke="#000000" stroke-width="1.0" stroke-linejoin="round" stroke-linecap="butt" d="m571.6982 234.12073l89.3858 -70.866135" fill-rule="evenodd"/></g></svg>